<svg width="26" height="20" viewBox="0 0 26 20" fill="none" xmlns="http://www.w3.org/2000/svg">
<path d="M24.4699 1.00004H15.4145C11.3468 1.00004 8.057 4.27606 8.057 8.32676V16.9568L1.9021 10.7573C1.6899 10.546 1.37161 10.546 1.15915 10.7573C0.946951 10.9686 0.946951 11.2856 1.15915 11.4972L8.5874 19L16.0156 11.4972C16.2278 11.2859 16.2278 10.9689 16.0156 10.7573C15.8034 10.546 15.4852 10.546 15.2727 10.7573L9.1178 16.9568V8.32676C9.1178 4.87481 11.9477 2.05678 15.4141 2.05678H24.4695C24.7525 2.05678 25 1.81009 25 1.52851C25.0002 1.24669 24.7881 1 24.4698 1L24.4699 1.00004Z" fill="white" stroke="white" stroke-width="0.4"/>
</svg>
